<svg id="Authentication" xmlns="http://www.w3.org/2000/svg" viewBox="0 0 563.91 467.65">
  <defs>
    <style>
      .kb-primary-color {
        fill: #00a19a;
      }

      .kb-secondary-color {
        fill: #fff;
      }
    </style>
  </defs>
  <title>cloud-key</title>
  <path id="_Pad_" data-name="&lt;Pad&gt;" class="kb-primary-color" d="M1872.53,2370.17c-2.22-15.58-18.22-30.23-34.9-32.4q-32.2-4.05-64.41-7l-2.52-2.79c-15.9-17.08-38.21-39.15-62.11-58.52a80.82,80.82,0,0,0-42.8-16.76,847.93,847.93,0,0,0-138.15,0,80.81,80.81,0,0,0-42.8,16.76c-23.91,19.37-46.22,41.44-62.11,58.52l-2.52,2.79q-32.2,3-64.41,7c-16.68,2.17-32.68,16.82-34.9,32.4q-21,151.15,29.89,302.31c5.38,15.59,22.12,30,36.54,31.87a1671.32,1671.32,0,0,0,418.79,0c14.42-1.89,31.16-16.28,36.54-31.87Q1893.54,2521.33,1872.53,2370.17Z" transform="translate(-1314.76 -2249.87)"/>
  <g id="_Groep_" data-name="&lt;Groep&gt;">
    <path id="_Samengesteld_pad_" data-name="&lt;Samengesteld pad&gt;" class="kb-secondary-color" d="M1731,2451.83c0-.12,0-0.24,0-0.37a126.69,126.69,0,0,0-246.5-41.18,108,108,0,0,0-103.48,107.87c0,44.35,26.57,82.82,65,99.07,26.69,11.29,53.69,18.29,156,18.29,101.67,0,120-4.67,147-13.31,35.45-11.37,61.36-44.22,61.36-83.41A87.34,87.34,0,0,0,1731,2451.83Zm-14.52,82.11h-10.68v38.34h-31.09v-23.18h-31.09v-15.17h-47.59a72.68,72.68,0,1,1,0-45.78h120.46A22.89,22.89,0,0,1,1716.52,2533.94Z" transform="translate(-1314.76 -2249.87)"/>
    <path id="_Pad_2" data-name="&lt;Pad&gt;" class="kb-secondary-color" d="M1527.09,2484.15a26.9,26.9,0,1,0,26.9,26.9A26.93,26.93,0,0,0,1527.09,2484.15Z" transform="translate(-1314.76 -2249.87)"/>
  </g>
</svg>
