<svg id="Authentication" xmlns="http://www.w3.org/2000/svg" viewBox="0 0 563.91 467.65">
  <defs>
    <style>
      .kb-primary-color {
        fill: #00a19a;
      }
    </style>
  </defs>
  <title>empty</title>
  <path id="_Pad_" data-name="&lt;Pad&gt;" class="kb-primary-color" d="M1872.53,2370.17c-2.22-15.58-18.22-30.23-34.9-32.4q-32.2-4.05-64.41-7l-2.52-2.79c-15.9-17.08-38.21-39.15-62.11-58.52a80.82,80.82,0,0,0-42.8-16.76,847.93,847.93,0,0,0-138.15,0,80.81,80.81,0,0,0-42.8,16.76c-23.91,19.37-46.22,41.44-62.11,58.52l-2.52,2.79q-32.2,3-64.41,7c-16.68,2.17-32.68,16.82-34.9,32.4q-21,151.15,29.89,302.31c5.38,15.59,22.12,30,36.54,31.87a1671.32,1671.32,0,0,0,418.79,0c14.42-1.89,31.16-16.28,36.54-31.87Q1893.54,2521.33,1872.53,2370.17Z" transform="translate(-1314.76 -2249.87)"/>
</svg>
