<svg id="RSS" xmlns="http://www.w3.org/2000/svg" viewBox="0 0 563.91 467.65">
  <defs>
    <style>
      .kb-primary-color {
        fill: #00a19a;
      }

      .kb-secondary-color {
        fill: #fff;
      }
    </style>
  </defs>
  <title>feed</title>
  <path id="_Pad_" data-name="&lt;Pad&gt;" class="kb-primary-color" d="M4195.85,1383.07c-2.22-15.58-18.22-30.23-34.9-32.4q-32.2-4.05-64.41-7l-2.52-2.79c-15.9-17.08-38.21-39.15-62.11-58.52a80.82,80.82,0,0,0-42.8-16.76,847.93,847.93,0,0,0-138.15,0,80.81,80.81,0,0,0-42.8,16.76c-23.91,19.37-46.22,41.44-62.11,58.52l-2.52,2.79q-32.2,3-64.41,7c-16.68,2.17-32.68,16.82-34.9,32.4q-21,151.15,29.89,302.31c5.38,15.59,22.12,30,36.54,31.87a1671.32,1671.32,0,0,0,418.79,0c14.42-1.89,31.16-16.28,36.54-31.87Q4216.85,1534.23,4195.85,1383.07Z" transform="translate(-3638.07 -1262.77)"/>
  <g id="_Groep_" data-name="&lt;Groep&gt;">
    <path id="_Pad_2" data-name="&lt;Pad&gt;" class="kb-secondary-color" d="M3867.86,1622a41.47,41.47,0,1,1-41.46-41.46,41.47,41.47,0,0,1,41.46,41.46" transform="translate(-3638.07 -1262.77)"/>
    <path id="_Pad_3" data-name="&lt;Pad&gt;" class="kb-secondary-color" d="M4091.5,1630.79c-8.62-73.5-52.44-247.45-273.53-275.15a28.45,28.45,0,0,0-33,28.08c0,0.21,0,.43,0,0.64h0c0,0.16,0,.33,0,0.49s0,0.29,0,.44a29.27,29.27,0,0,0,25.42,27.69c57.4,7.48,194.12,44.38,223.06,225.88A29.31,29.31,0,0,0,4091.5,1630.79Z" transform="translate(-3638.07 -1262.77)"/>
    <path id="_Pad_4" data-name="&lt;Pad&gt;" class="kb-secondary-color" d="M3987.09,1629.64c-8.11-52.12-40.43-148.07-167.79-168.17a28.49,28.49,0,0,0-34.37,27.86c0,0.1,0,.19,0,0.29h0v0.24a29.35,29.35,0,0,0,23.41,28.71c36.55,7.63,104.39,33.4,117.85,120a29.39,29.39,0,0,0,29,25h3A29.33,29.33,0,0,0,3987.09,1629.64Z" transform="translate(-3638.07 -1262.77)"/>
  </g>
</svg>
