<svg id="Admin" xmlns="http://www.w3.org/2000/svg" viewBox="0 0 563.91 467.65">
  <defs>
    <style>
      .kb-primary-color {
        fill: #00a19a;
      }

      .kb-secondary-color {
        fill: #fff;
      }
    </style>
  </defs>
  <title>shield-cog</title>
  <g id="Admin_1" data-name="Admin 1">
    <path id="_Pad_" data-name="&lt;Pad&gt;" class="kb-primary-color" d="M1869.87,303c-2.22-15.58-18.22-30.23-34.9-32.4q-32.2-4.05-64.41-7L1768,260.8c-15.9-17.08-38.21-39.15-62.11-58.52a80.82,80.82,0,0,0-42.8-16.76,847.93,847.93,0,0,0-138.15,0,80.81,80.81,0,0,0-42.8,16.76c-23.91,19.37-46.22,41.44-62.11,58.52l-2.52,2.79q-32.2,3-64.41,7c-16.68,2.17-32.68,16.82-34.9,32.4q-21,151.15,29.89,302.31c5.38,15.59,22.12,30,36.54,31.87a1671.32,1671.32,0,0,0,418.79,0c14.42-1.89,31.16-16.28,36.54-31.87Q1890.88,454.16,1869.87,303Z" transform="translate(-1312.09 -182.7)"/>
    <g id="_Groep_" data-name="&lt;Groep&gt;">
      <path id="_Samengesteld_pad_" data-name="&lt;Samengesteld pad&gt;" class="kb-secondary-color" d="M1594,617a20,20,0,0,1-6-.93c-6.29-2-154.07-49.83-163-163.66l0-.26-9-138a20,20,0,0,1,18.38-21.28c50.33-4.09,96.42-19.89,149.46-51.21a20,20,0,0,1,20.39,0c53,31.32,99.13,47.12,149.46,51.21a20,20,0,0,1,18.38,21.28l-9,138,0,0.26c-8.92,113.83-156.7,161.68-163,163.66A20.05,20.05,0,0,1,1594,617Zm-129-167.6c6.06,76,103.53,116.9,129,126.32,25.46-9.46,123-50.56,129.06-126.32l7.74-118.68c-45.88-6.32-89.15-21.74-136.78-48.62-47.63,26.88-90.89,42.29-136.78,48.62Z" transform="translate(-1312.09 -182.7)"/>
    </g>
    <path id="_Samengesteld_pad_2" data-name="&lt;Samengesteld pad&gt;" class="kb-secondary-color" d="M1697.06,415.17a5,5,0,0,0-4.25-3.85l-23.46-2.94a77.3,77.3,0,0,0-8.2-19.74l14.53-18.69a5,5,0,0,0,.28-5.73c-5.63-8.94-9.19-12.5-18.13-18.13a5,5,0,0,0-5.73.28l-18.69,14.53a77.29,77.29,0,0,0-19.74-8.2l-2.94-23.46a5,5,0,0,0-3.85-4.25c-10.3-2.34-15.33-2.34-25.63,0a5,5,0,0,0-3.85,4.25l-2.94,23.46a77.3,77.3,0,0,0-19.74,8.2L1536,346.36a5,5,0,0,0-5.73-.28c-8.94,5.63-12.5,9.19-18.13,18.13a5,5,0,0,0,.28,5.73L1527,388.63a77.3,77.3,0,0,0-8.2,19.74l-23.46,2.94a5,5,0,0,0-4.25,3.85c-2.34,10.3-2.34,15.33,0,25.63a5,5,0,0,0,4.25,3.85l23.46,2.94a77.29,77.29,0,0,0,8.2,19.74L1512.43,486a5,5,0,0,0-.28,5.73c5.63,8.94,9.19,12.49,18.13,18.13a5,5,0,0,0,5.73-.28l18.69-14.53a77.3,77.3,0,0,0,19.74,8.2l2.94,23.46a5,5,0,0,0,3.85,4.25,47.74,47.74,0,0,0,25.63,0,5,5,0,0,0,3.85-4.25l2.94-23.46a77.3,77.3,0,0,0,19.74-8.2l18.69,14.53a5,5,0,0,0,5.73.28c8.94-5.63,12.5-9.19,18.13-18.13a5,5,0,0,0-.28-5.73l-14.53-18.69a77.3,77.3,0,0,0,8.2-19.74l23.46-2.94a5,5,0,0,0,4.25-3.85C1699.4,430.5,1699.4,425.47,1697.06,415.17Zm-103,52.56A39.74,39.74,0,1,1,1633.79,428,39.74,39.74,0,0,1,1594.05,467.73Z" transform="translate(-1312.09 -182.7)"/>
  </g>
</svg>
