<svg id="Admin" xmlns="http://www.w3.org/2000/svg" viewBox="0 0 563.91 467.65">
  <defs>
    <style>
      .kb-primary-color {
        fill: #00a19a;
      }

      .kb-secondary-color {
        fill: #fff;
      }
    </style>
  </defs>
  <title>shield-admin</title>
  <g id="Admin_2" data-name="Admin 2">
    <path id="_Pad_" data-name="&lt;Pad&gt;" class="kb-primary-color" d="M2730.18,297.6c-2.22-15.58-18.22-30.23-34.9-32.4q-32.2-4.05-64.41-7l-2.52-2.79c-15.9-17.08-38.21-39.15-62.11-58.52a80.82,80.82,0,0,0-42.8-16.76,847.93,847.93,0,0,0-138.15,0,80.81,80.81,0,0,0-42.8,16.76c-23.91,19.37-46.22,41.44-62.11,58.52l-2.52,2.79q-32.2,3-64.41,7c-16.68,2.17-32.68,16.82-34.9,32.4q-21,151.15,29.89,302.31c5.38,15.59,22.12,30,36.54,31.87a1671.32,1671.32,0,0,0,418.79,0c14.42-1.89,31.16-16.28,36.54-31.87Q2751.19,448.75,2730.18,297.6Z" transform="translate(-2172.41 -177.3)"/>
    <path id="_Samengesteld_pad_" data-name="&lt;Samengesteld pad&gt;" class="kb-secondary-color" d="M2595.14,288.78c-43.84-4-84.08-19.72-130.47-50.82a18.81,18.81,0,0,0-21,0c-46.39,31.1-86.62,46.78-130.47,50.82a18.81,18.81,0,0,0-17.08,18.73v138c0,111.3,145.8,161.84,152,163.93a18.82,18.82,0,0,0,12,0c6.21-2.1,152-52.63,152-163.93v-138A18.81,18.81,0,0,0,2595.14,288.78ZM2333.79,445.47V422.58h120.4V276.05c41.8,26.57,79.91,41.82,120.4,48.09v98.44h-120.4V571.49h0C2429,561.53,2333.79,519,2333.79,445.47Z" transform="translate(-2172.41 -177.3)"/>
  </g>
</svg>
