<svg id="Onzichtbaar" xmlns="http://www.w3.org/2000/svg" viewBox="0 0 563.91 467.65">
  <defs>
    <style>
      .kb-primary-color {
        fill: #00a19a;
      }

      .kb-secondary-color {
        fill: #fff;
      }
    </style>
  </defs>
  <title>cloud-eye-slash</title>
  <g id="_Groep_" data-name="&lt;Groep&gt;">
    <path id="_Pad_" data-name="&lt;Pad&gt;" class="kb-primary-color" d="M3057.05,2377.67c-2.22-15.58-18.22-30.23-34.9-32.4q-32.2-4.05-64.41-7l-2.52-2.79c-15.9-17.08-38.21-39.15-62.11-58.52a80.82,80.82,0,0,0-42.8-16.76,847.93,847.93,0,0,0-138.15,0,80.81,80.81,0,0,0-42.8,16.76c-23.91,19.37-46.22,41.44-62.11,58.52l-2.52,2.79q-32.2,3-64.41,7c-16.68,2.17-32.68,16.82-34.9,32.4q-21,151.15,29.89,302.31c5.38,15.59,22.12,30,36.54,31.87a1671.32,1671.32,0,0,0,418.79,0c14.42-1.89,31.16-16.28,36.54-31.87Q3078.06,2528.82,3057.05,2377.67Z" transform="translate(-2499.28 -2257.36)"/>
    <g id="_Groep_2" data-name="&lt;Groep&gt;">
      <path id="_Samengesteld_pad_" data-name="&lt;Samengesteld pad&gt;" class="kb-secondary-color" d="M2915.54,2459.33c0-.12,0-0.24,0-0.37a126.69,126.69,0,0,0-246.5-41.18,108,108,0,0,0-103.48,107.87c0,44.35,26.57,82.82,65,99.07,26.69,11.29,53.69,18.29,156,18.29,101.67,0,120-4.67,147-13.31,35.45-11.37,61.36-44.22,61.36-83.41A87.34,87.34,0,0,0,2915.54,2459.33Zm-224.8,166.44a15,15,0,0,1-10.61-25.61l23.38-23.38c-41.22-22-60.48-55.18-60.48-55.18s43-74.22,138.21-74.22a168.14,168.14,0,0,1,45.55,6.13l38.34-38.34a15,15,0,1,1,21.21,21.21l-185,185A15,15,0,0,1,2690.73,2625.77Zm90.5-29.95a170.42,170.42,0,0,1-37-4l20-20a53.07,53.07,0,0,0,67.34-67.34l34.27-34.27c36.53,21.81,53.66,51.33,53.66,51.33S2876.41,2595.83,2781.23,2595.83Z" transform="translate(-2499.28 -2257.36)"/>
      <path id="_Pad_2" data-name="&lt;Pad&gt;" class="kb-secondary-color" d="M2781.23,2468.51a53.05,53.05,0,0,0-47.07,77.62l71.59-71.59A52.69,52.69,0,0,0,2781.23,2468.51Z" transform="translate(-2499.28 -2257.36)"/>
    </g>
  </g>
</svg>
