<svg id="Admin" xmlns="http://www.w3.org/2000/svg" viewBox="0 0 563.91 467.65">
  <defs>
    <style>
      .kb-primary-color {
        fill: #00a19a;
      }

      .kb-secondary-color {
        fill: #fff;
      }
    </style>
  </defs>
  <title>shield-delft</title>
  <g id="Admin_3" data-name="Admin 3">
    <path id="_Pad_" data-name="&lt;Pad&gt;" class="kb-primary-color" d="M3412.42,297.6c-2.22-15.58-18.22-30.23-34.9-32.4q-32.2-4.05-64.41-7l-2.52-2.79c-15.9-17.08-38.21-39.15-62.11-58.52a80.82,80.82,0,0,0-42.8-16.76,847.93,847.93,0,0,0-138.15,0,80.81,80.81,0,0,0-42.8,16.76c-23.91,19.37-46.22,41.44-62.11,58.52l-2.52,2.79q-32.2,3-64.41,7c-16.68,2.17-32.68,16.82-34.9,32.4q-21,151.15,29.89,302.31c5.38,15.59,22.12,30,36.54,31.87a1671.32,1671.32,0,0,0,418.79,0c14.42-1.89,31.16-16.28,36.54-31.87Q3433.43,448.75,3412.42,297.6Z" transform="translate(-2854.65 -177.3)"/>
    <g id="_Groep_" data-name="&lt;Groep&gt;">
      <path id="_Samengesteld_pad_" data-name="&lt;Samengesteld pad&gt;" class="kb-secondary-color" d="M2974.63,276.29V487.46c0,47.55,28.3,86.87,81.84,113.72A295,295,0,0,0,3134,626.69l2.57,0.4,2.57-.4a295,295,0,0,0,77.56-25.52c53.54-26.84,81.84-66.17,81.84-113.72V276.29H2974.63Zm290.95,211.17c0,47.48-41,75.19-77.23,90.4-20-5.57-30.68-18.48-51.75-18.48s-31.73,12.91-51.75,18.48c-36.23-15.21-77.23-42.92-77.23-90.4V309.29h58.17v24.42c34,0,43.95-21,70.81-21s36.81,21,70.81,21V309.29h58.17V487.46Z" transform="translate(-2854.65 -177.3)"/>
      <path id="_Pad_2" data-name="&lt;Pad&gt;" class="kb-secondary-color" d="M3065.8,467.54V503c34,0,43.95-21,70.81-21s36.81,21,70.81,21V467.54c-34,0-43.95-21-70.81-21S3099.8,467.54,3065.8,467.54Z" transform="translate(-2854.65 -177.3)"/>
      <path id="_Pad_3" data-name="&lt;Pad&gt;" class="kb-secondary-color" d="M3065.8,411.12v35.42c34,0,43.95-21,70.81-21s36.81,21,70.81,21V411.12c-34,0-43.95-21-70.81-21S3099.8,411.12,3065.8,411.12Z" transform="translate(-2854.65 -177.3)"/>
      <path id="_Pad_4" data-name="&lt;Pad&gt;" class="kb-secondary-color" d="M3065.8,524v35.42c34,0,43.95-21,70.81-21s36.81,21,70.81,21V524c-34,0-43.95-21-70.81-21S3099.8,524,3065.8,524Z" transform="translate(-2854.65 -177.3)"/>
      <path id="_Pad_5" data-name="&lt;Pad&gt;" class="kb-secondary-color" d="M3065.8,354.71v35.42c34,0,43.95-21,70.81-21s36.81,21,70.81,21V354.71c-34,0-43.95-21-70.81-21S3099.8,354.71,3065.8,354.71Z" transform="translate(-2854.65 -177.3)"/>
    </g>
  </g>
</svg>
