<svg id="Account" xmlns="http://www.w3.org/2000/svg" viewBox="0 0 563.91 467.65">
  <defs>
    <style>
      .kb-primary-color {
        fill: #00a19a;
      }

      .kb-secondary-color {
        fill: #fff;
      }
    </style>
  </defs>
  <title>user</title>
  <path id="_Pad_" data-name="&lt;Pad&gt;" class="kb-primary-color" d="M3057.05,1380.07c-2.22-15.58-18.22-30.23-34.9-32.4q-32.2-4.05-64.41-7l-2.52-2.79c-15.9-17.08-38.21-39.15-62.11-58.52a80.82,80.82,0,0,0-42.8-16.76,847.93,847.93,0,0,0-138.15,0,80.81,80.81,0,0,0-42.8,16.76c-23.91,19.37-46.22,41.44-62.11,58.52l-2.52,2.79q-32.2,3-64.41,7c-16.68,2.17-32.68,16.82-34.9,32.4q-21,151.15,29.89,302.31c5.38,15.59,22.12,30,36.54,31.87a1671.32,1671.32,0,0,0,418.79,0c14.42-1.89,31.16-16.28,36.54-31.87Q3078.06,1531.23,3057.05,1380.07Z" transform="translate(-2499.28 -1259.77)"/>
  <g>
    <path id="_Pad_2" data-name="&lt;Pad&gt;" class="kb-secondary-color" d="M2781.23,1666.71c59.91,0,99.16-5.13,121.31-9.36,12.88-2.45,20.35-14.14,15.95-24.91-13.88-34-52-100.69-137.26-100.69s-123.37,66.68-137.26,100.69c-4.4,10.77,3.07,22.46,15.95,24.91C2682.08,1661.57,2721.33,1666.71,2781.23,1666.71Z" transform="translate(-2499.28 -1259.77)"/>
    <circle id="_Pad_3" data-name="&lt;Pad&gt;" class="kb-secondary-color" cx="281.96" cy="161.86" r="79.63"/>
  </g>
</svg>
