<svg id="Oog" xmlns="http://www.w3.org/2000/svg" viewBox="0 0 563.91 467.65">
  <defs>
    <style>
      .kb-primary-color {
        fill: #00a19a;
      }

      .kb-secondary-color {
        fill: #fff;
      }
    </style>
  </defs>
  <title>cloud-eye</title>
  <path id="_Pad_" data-name="&lt;Pad&gt;" class="kb-primary-color" d="M4195.85,2370.17c-2.22-15.58-18.22-30.23-34.9-32.4q-32.2-4.05-64.41-7L4094,2328c-15.9-17.08-38.21-39.15-62.11-58.52a80.82,80.82,0,0,0-42.8-16.76,847.93,847.93,0,0,0-138.15,0,80.81,80.81,0,0,0-42.8,16.76c-23.91,19.37-46.22,41.44-62.11,58.52l-2.52,2.79q-32.2,3-64.41,7c-16.68,2.17-32.68,16.82-34.9,32.4q-21,151.15,29.89,302.31c5.38,15.59,22.12,30,36.54,31.87a1671.32,1671.32,0,0,0,418.79,0c14.42-1.89,31.16-16.28,36.54-31.87Q4216.85,2521.33,4195.85,2370.17Z" transform="translate(-3638.07 -2249.87)"/>
  <path id="_Samengesteld_pad_" data-name="&lt;Samengesteld pad&gt;" class="kb-secondary-color" d="M4133.67,2538.8c0,39.19-25.91,72-61.36,83.41-27,8.65-45.3,13.31-147,13.31-102.33,0-129.33-7-156-18.29-38.39-16.25-65-54.72-65-99.07a108,108,0,0,1,103.48-107.87,126.69,126.69,0,0,1,246.5,41.18c0,0.12,0,.24,0,0.37A87.34,87.34,0,0,1,4133.67,2538.8Zm-351.86-24.69s43,74.22,138.21,74.22,138.21-74.22,138.21-74.22-43-74.22-138.21-74.22S3781.81,2514.11,3781.81,2514.11Z" transform="translate(-3638.07 -2249.87)"/>
  <path id="_Samengesteld_pad_2" data-name="&lt;Samengesteld pad&gt;" class="kb-secondary-color" d="M3920,2575.17a61.06,61.06,0,1,1,61.06-61.06A61.13,61.13,0,0,1,3920,2575.17Zm0-92.11a31.06,31.06,0,1,0,31.06,31.06A31.09,31.09,0,0,0,3920,2483.05Z" transform="translate(-3638.07 -2249.87)"/>
</svg>
